<svg width="178" height="120" viewBox="0 0 178 120" fill="none" xmlns="http://www.w3.org/2000/svg">
<rect width="9.20695" height="49.9726" transform="matrix(-0.730027 -0.683418 -0.683418 0.730027 178 59.9752)" fill="#242736"/>
<rect width="8.7504" height="51.479" transform="matrix(-0.730027 -0.683418 -0.683418 0.730027 41.5697 22.1201)" fill="#242736"/>
<rect width="8.39319" height="171.221" transform="matrix(4.37114e-08 -1 -1 -4.37114e-08 171.221 62.1094)" fill="#242736"/>
<path d="M64.5425 43.4469C59.3879 43.4469 54.9632 41.7784 51.2685 38.4412L55.3356 33.5696C58.4642 36.1023 61.5779 37.3686 64.6766 37.3686C66.1068 37.3686 67.2093 37.1153 67.984 36.6088C68.7884 36.0725 69.1907 35.3425 69.1907 34.4188V34.3294C69.1907 33.4355 68.7735 32.7055 67.9393 32.1394C67.105 31.5733 65.4215 30.9774 62.8889 30.3517C61.1309 29.9047 59.6858 29.4727 58.5536 29.0555C57.4213 28.6086 56.3636 28.0276 55.3803 27.3125C54.3971 26.5974 53.6671 25.7035 53.1903 24.6309C52.7434 23.5582 52.5199 22.277 52.5199 20.7872V20.6978C52.5199 17.8672 53.533 15.5878 55.5591 13.8597C57.5852 12.1315 60.2221 11.2674 63.4699 11.2674C67.8797 11.2674 71.7531 12.5933 75.0903 15.2452L71.5148 20.4297C68.5054 18.3737 65.794 17.3458 63.3805 17.3458C62.0695 17.3458 61.0713 17.599 60.386 18.1056C59.7007 18.6121 59.3581 19.2676 59.3581 20.0721V20.1615C59.3581 21.1745 59.7752 21.9343 60.6095 22.4409C61.4736 22.9176 63.306 23.5284 66.1068 24.2733C69.5035 25.197 72.0064 26.3441 73.6154 27.7147C75.2243 29.0853 76.0288 31.0668 76.0288 33.659V33.7484C76.0288 36.7876 74.9711 39.1712 72.8556 40.8994C70.7699 42.5978 67.9989 43.4469 64.5425 43.4469Z" fill="#1853A8"/>
<path d="M89.2872 43V18.0609H79.7674V11.7144H105.69V18.0609H96.17V43H89.2872ZM110.983 43V11.7144H134.582V17.8374H117.821V24.1839H132.57V30.307H117.821V36.877H134.805V43H110.983ZM140.925 43V11.7144H153.707C157.402 11.7144 160.322 12.7125 162.467 14.7088C164.612 16.6754 165.685 19.2825 165.685 22.5303V22.6196C165.685 26.1356 164.493 28.847 162.109 30.7539C159.726 32.6608 156.701 33.6143 153.037 33.6143H147.807V43H140.925ZM147.807 27.4913H153.26C154.929 27.4913 156.254 27.0443 157.238 26.1505C158.221 25.2566 158.713 24.1243 158.713 22.7537V22.6643C158.713 21.1447 158.221 19.9827 157.238 19.1782C156.254 18.3439 154.884 17.9268 153.126 17.9268H147.807V27.4913Z" fill="#242736"/>
<path d="M40.236 109.003C35.6475 109.003 31.8187 107.454 28.7497 104.355C25.7106 101.256 24.191 97.4426 24.191 92.9136V92.8242C24.191 88.2953 25.7255 84.4665 28.7944 81.3379C31.8634 78.2094 35.7667 76.6451 40.5042 76.6451C45.5099 76.6451 49.6217 78.2541 52.8397 81.472L48.4597 86.5224C45.8079 84.1685 43.1411 82.9916 40.4595 82.9916C37.8673 82.9916 35.7071 83.9451 33.9789 85.852C32.2507 87.7291 31.3867 90.0234 31.3867 92.7348V92.8242C31.3867 95.5654 32.2359 97.8895 33.9342 99.7965C35.6624 101.703 37.8375 102.657 40.4595 102.657C42.1281 102.657 43.5732 102.359 44.7948 101.763C46.0462 101.167 47.3423 100.243 48.6832 98.992L53.0631 103.417C51.335 105.294 49.4727 106.694 47.4764 107.618C45.5099 108.542 43.0964 109.003 40.236 109.003ZM58.573 108.467V77.1814H72.8751C76.8379 77.1814 79.8771 78.2392 81.9926 80.3547C83.7803 82.1424 84.6742 84.5261 84.6742 87.5057V87.5951C84.6742 92.3922 82.4395 95.625 77.9701 97.2936L85.6128 108.467H77.5679L70.8638 98.4556H65.4559V108.467H58.573ZM65.4559 92.3773H72.4281C74.0967 92.3773 75.3928 91.9899 76.3165 91.2152C77.2401 90.4108 77.702 89.3232 77.702 87.9526V87.8632C77.702 86.4032 77.2252 85.3008 76.2718 84.5559C75.3481 83.7812 74.0222 83.3938 72.294 83.3938H65.4559V92.3773ZM90.8713 108.467V77.1814H98.2904L106.514 90.4108L114.738 77.1814H122.157V108.467H115.319V88.042L106.514 101.405H106.335L97.62 88.1761V108.467H90.8713Z" fill="#242736"/>
</svg>
