<svg width="197" height="322" viewBox="0 0 197 322" fill="none" xmlns="http://www.w3.org/2000/svg">
<path d="M112.494 142.707L77.4907 178.304C60.187 179.056 24.2186 169.001 19.8361 129.559C16.7162 101.48 40.6262 85.7666 57.1775 79.4794C57.1775 79.4794 66.2056 77.4909 74.4813 77.596C82.7569 77.7011 163.518 77.596 163.518 77.596H168.523L196.386 63.1965L145.049 113.908H73.9907C69.7126 115.264 61.219 120.294 61.4694 129.559C61.7198 138.825 69.9213 142.185 73.9907 142.707H112.494Z" fill="#203BB0"/>
<path d="M51.9379 173.27C39.7176 168.289 22.7809 156.062 19.8362 129.559C16.8083 102.309 39.4004 86.4828 55.8349 79.9846C23.4422 110.869 18.8351 134.668 51.9379 173.27Z" fill="#1B2F86"/>
<path d="M83.8926 178.58L118.896 142.983C136.199 142.23 172.168 152.285 176.55 191.727C179.67 219.806 155.76 235.52 139.209 241.807C139.209 241.807 130.181 243.796 121.905 243.691C113.629 243.586 32.8684 243.691 32.8684 243.691H27.8629L1.52588e-05 258.09L51.3373 207.379H122.396C126.674 206.022 135.167 200.993 134.917 191.727C134.666 182.462 126.465 179.102 122.396 178.58H83.8926Z" fill="#00A779"/>
<path d="M144.448 148.016C156.669 152.997 173.605 165.225 176.55 191.727C179.578 218.978 156.986 234.803 140.551 241.302C172.944 210.417 177.551 186.618 144.448 148.016Z" fill="#02835F"/>
<path d="M47.2106 300.127C44.43 300.127 41.9382 299.675 39.7354 298.773C37.5326 297.87 35.7631 296.534 34.4269 294.764C33.1269 292.995 32.4407 290.864 32.3685 288.372H42.2271C42.3716 289.781 42.8591 290.864 43.6897 291.622C44.5203 292.345 45.6036 292.706 46.9398 292.706C48.312 292.706 49.3954 292.399 50.1899 291.785C50.9843 291.135 51.3816 290.25 51.3816 289.131C51.3816 288.192 51.0566 287.415 50.4065 286.801C49.7926 286.187 49.0162 285.682 48.0773 285.285C47.1745 284.887 45.8745 284.436 44.1772 283.93C41.7216 283.172 39.7173 282.414 38.1645 281.655C36.6117 280.897 35.2755 279.778 34.1561 278.297C33.0366 276.816 32.4769 274.884 32.4769 272.501C32.4769 268.962 33.7588 266.199 36.3228 264.213C38.8868 262.191 42.2271 261.18 46.3439 261.18C50.5329 261.18 53.9094 262.191 56.4734 264.213C59.0373 266.199 60.4096 268.98 60.5902 272.555H50.569C50.4968 271.327 50.0454 270.37 49.2148 269.684C48.3843 268.962 47.3189 268.601 46.0189 268.601C44.8994 268.601 43.9966 268.908 43.3105 269.522C42.6244 270.099 42.2813 270.948 42.2813 272.068C42.2813 273.295 42.8591 274.252 44.0147 274.939C45.1703 275.625 46.9759 276.365 49.4315 277.159C51.8871 277.99 53.8733 278.784 55.39 279.543C56.9428 280.301 58.279 281.403 59.3985 282.847C60.5179 284.292 61.0777 286.151 61.0777 288.426C61.0777 290.593 60.5179 292.561 59.3985 294.331C58.3151 296.1 56.7262 297.509 54.6317 298.556C52.5372 299.603 50.0635 300.127 47.2106 300.127ZM94.133 261.721V269.143H84.0577V299.748H74.7949V269.143H64.7196V261.721H94.133ZM108.044 269.143V276.834H120.449V283.985H108.044V292.327H122.074V299.748H98.7817V261.721H122.074V269.143H108.044ZM157.068 273.963C157.068 276.166 156.562 278.189 155.551 280.03C154.54 281.836 152.987 283.298 150.892 284.418C148.798 285.537 146.198 286.097 143.092 286.097H137.35V299.748H128.088V261.721H143.092C146.126 261.721 148.69 262.245 150.784 263.292C152.879 264.34 154.449 265.784 155.497 267.626C156.544 269.468 157.068 271.58 157.068 273.963ZM142.388 278.73C144.157 278.73 145.476 278.315 146.342 277.484C147.209 276.654 147.642 275.48 147.642 273.963C147.642 272.447 147.209 271.273 146.342 270.443C145.476 269.612 144.157 269.197 142.388 269.197H137.35V278.73H142.388Z" fill="#00A779"/>
<path d="M33.3857 39.9328C33.3857 36.1771 34.1982 32.8367 35.8233 29.9117C37.4483 26.9505 39.7053 24.6573 42.5943 23.0323C45.5194 21.3711 48.8236 20.5406 52.5071 20.5406C57.0211 20.5406 60.8851 21.7323 64.0991 24.1157C67.313 26.4991 69.4617 29.7492 70.5451 33.8659H60.3615C59.6031 32.277 58.5197 31.0673 57.1114 30.2367C55.7391 29.4061 54.1682 28.9908 52.3987 28.9908C49.5459 28.9908 47.2347 29.9839 45.4652 31.9701C43.6957 33.9562 42.811 36.6105 42.811 39.9328C42.811 43.2551 43.6957 45.9093 45.4652 47.8955C47.2347 49.8817 49.5459 50.8748 52.3987 50.8748C54.1682 50.8748 55.7391 50.4595 57.1114 49.6289C58.5197 48.7983 59.6031 47.5886 60.3615 45.9996H70.5451C69.4617 50.1164 67.313 53.3665 64.0991 55.7499C60.8851 58.0972 57.0211 59.2708 52.5071 59.2708C48.8236 59.2708 45.5194 58.4583 42.5943 56.8333C39.7053 55.1721 37.4483 52.879 35.8233 49.9539C34.1982 47.0288 33.3857 43.6884 33.3857 39.9328ZM95.6097 59L87.7012 44.6454H85.4803V59H76.2175V20.9739H91.7638C94.7611 20.9739 97.307 21.4975 99.4015 22.5448C101.532 23.592 103.121 25.0365 104.168 26.8782C105.216 28.6839 105.739 30.7061 105.739 32.9451C105.739 35.4729 105.017 37.7299 103.572 39.7161C102.164 41.7023 100.07 43.1107 97.2889 43.9412L106.064 59H95.6097ZM85.4803 38.0911H91.2221C92.9194 38.0911 94.1833 37.6758 95.0139 36.8452C95.8806 36.0146 96.3139 34.841 96.3139 33.3243C96.3139 31.8798 95.8806 30.7422 95.0139 29.9117C94.1833 29.0811 92.9194 28.6658 91.2221 28.6658H85.4803V38.0911ZM154.618 20.9739V59H145.355V36.1952L136.85 59H129.375L120.817 36.141V59H111.554V20.9739H122.496L133.167 47.2997L143.73 20.9739H154.618Z" fill="#203BB0"/>
</svg>
