<svg width="22" height="22" viewBox="0 0 22 22" fill="none" xmlns="http://www.w3.org/2000/svg">
<path d="M19.3798 1.868H17.7114V0.573301C17.7114 0.257985 17.4472 0 17.1243 0C16.8014 0 16.5372 0.257985 16.5372 0.573301V1.868H5.38192V0.573301C5.38192 0.257985 5.11772 0 4.7948 0C4.47189 0 4.20769 0.257985 4.20769 0.573301V1.868H2.53929C1.1351 1.868 0 2.95728 0 4.32842V18.6418C0 20.013 1.1351 21.1214 2.53929 21.1214H19.3847C20.7889 21.1214 21.924 20.013 21.924 18.6418V4.32842C21.9191 2.95728 20.784 1.868 19.3798 1.868ZM20.7449 18.6418C20.7449 19.3776 20.1382 19.9748 19.3798 19.9748H2.53929C1.78093 19.9748 1.17424 19.3776 1.17424 18.6418V4.32842C1.17424 3.59268 1.78093 3.01461 2.53929 3.01461H4.20769V4.80617C4.20769 5.12149 4.47189 5.37947 4.7948 5.37947C5.11772 5.37947 5.38192 5.12149 5.38192 4.80617V3.01461H16.5372V4.80617C16.5372 5.12149 16.8014 5.37947 17.1243 5.37947C17.4472 5.37947 17.7114 5.12149 17.7114 4.80617V3.01461H19.3798C20.1333 3.01461 20.7449 3.59268 20.7449 4.32842V18.6418Z" fill="#7F96B2"/>
<path d="M16.8305 11.9961H5.0881C4.76518 11.9961 4.50098 12.2541 4.50098 12.5694C4.50098 12.8847 4.76518 13.1427 5.0881 13.1427H16.8305C17.1534 13.1427 17.4176 12.8847 17.4176 12.5694C17.4176 12.2541 17.1534 11.9961 16.8305 11.9961Z" fill="#7F96B2"/>
<path d="M16.8305 15.8185H5.0881C4.76518 15.8185 4.50098 16.0765 4.50098 16.3918C4.50098 16.7071 4.76518 16.9651 5.0881 16.9651H16.8305C17.1534 16.9651 17.4176 16.7071 17.4176 16.3918C17.4176 16.0765 17.1534 15.8185 16.8305 15.8185Z" fill="#7F96B2"/>
<path d="M5.0881 9.32079H11.4486C11.7715 9.32079 12.0357 9.06281 12.0357 8.74749C12.0357 8.43218 11.7715 8.17419 11.4486 8.17419H5.0881C4.76518 8.17419 4.50098 8.43218 4.50098 8.74749C4.50098 9.06281 4.76518 9.32079 5.0881 9.32079Z" fill="#7F96B2"/>
</svg>
