<svg width="23" height="19" viewBox="0 0 23 19" fill="none" xmlns="http://www.w3.org/2000/svg">
<path d="M5.10638 0C4.19928 0 3.33679 0.598651 3.02588 1.45635L0.0299592 9.78877C0.0116501 9.83521 0.00151416 9.88447 0 9.93436V13.3672V13.7313V17.497C0 18.1464 0.536269 18.6829 1.18572 18.6829H2.73561C3.38572 18.6829 3.92166 18.1462 3.92166 17.497V14.9172H19.078V17.497C19.078 18.1462 19.6149 18.6829 20.2641 18.6829H21.8139C22.4634 18.6829 23 18.1462 23 17.497V13.7313V13.3672V9.93436C22.9985 9.88447 22.9884 9.83521 22.97 9.78877L19.9635 1.45635C19.6529 0.598651 18.7904 0 17.883 0H12.0163H11.8911H10.9864H5.11936H5.10937H5.10638ZM5.10638 0.863387H10.9837H11.8885H12.0136H17.8803C18.3537 0.863387 18.9775 1.30143 19.1393 1.74762L22.1245 9.99682V13.3672V13.7313V17.497C22.1245 17.6822 21.993 17.8195 21.8126 17.8195H20.2524C20.072 17.8195 19.9402 17.6822 19.9402 17.497V14.4907C19.9407 14.4332 19.9298 14.3761 19.9081 14.3229C19.8863 14.2696 19.8542 14.2213 19.8135 14.1806C19.7728 14.1399 19.7245 14.1077 19.6712 14.086C19.618 14.0642 19.5609 14.0532 19.5034 14.0538H3.48325C3.42574 14.0532 3.36869 14.0642 3.31545 14.086C3.26221 14.1077 3.21385 14.1399 3.17319 14.1806C3.13252 14.2213 3.10038 14.2696 3.07863 14.3229C3.05688 14.3761 3.04596 14.4332 3.04652 14.4907V17.497C3.04652 17.6822 2.91536 17.8195 2.73428 17.8195H1.18439C1.00363 17.8195 0.862159 17.6819 0.862159 17.497V13.7313V13.3672V10.0176L3.84743 1.74762C4.00887 1.30143 4.63269 0.863387 5.10638 0.863387ZM6.01115 1.5916C5.36602 1.5916 4.78914 1.99135 4.56511 2.60062L2.68235 7.72903C2.65823 7.79444 2.65026 7.86469 2.65913 7.93383C2.66799 8.00298 2.69343 8.06896 2.73327 8.12616C2.77312 8.18336 2.82619 8.23008 2.88797 8.26237C2.94975 8.29465 3.01842 8.31153 3.08813 8.31157H19.9089C19.9786 8.31153 20.0473 8.29465 20.109 8.26237C20.1708 8.23008 20.2239 8.18336 20.2637 8.12616C20.3036 8.06896 20.329 8.00298 20.3379 7.93383C20.3467 7.86469 20.3388 7.79444 20.3147 7.72903L18.4216 2.60062C18.1982 1.99135 17.631 1.5916 16.9859 1.5916H13.3242H9.75604H9.67282H6.01115ZM6.01115 2.45499H9.67282H9.75604H13.3242H16.9859C17.2026 2.45499 17.5491 2.69753 17.6203 2.89189L19.2847 7.44819H3.71228L5.37668 2.89189C5.44791 2.69753 5.79411 2.45499 6.01115 2.45499ZM4.16999 9.19581C3.07481 9.19581 2.18303 10.0924 2.18303 11.1931C2.18303 12.2937 3.07481 13.2008 4.16999 13.2008C5.26516 13.2008 6.16727 12.2937 6.16727 11.1931C6.16727 10.0924 5.26516 9.19581 4.16999 9.19581ZM18.827 9.19581C17.7318 9.19581 16.8297 10.0924 16.8297 11.1931C16.8297 12.2937 17.7318 13.2008 18.827 13.2008C19.9222 13.2008 20.814 12.2937 20.814 11.1931C20.814 10.0924 19.9222 9.19581 18.827 9.19581ZM4.16999 10.0696C4.79846 10.0696 5.30377 10.5613 5.30377 11.1931C5.30377 11.8248 4.79846 12.327 4.16999 12.327C3.54151 12.327 3.04652 11.8248 3.04652 11.1931C3.04652 10.5613 3.54151 10.0696 4.16999 10.0696ZM18.827 10.0696C19.4555 10.0696 19.9505 10.5613 19.9505 11.1931C19.9505 11.8248 19.4555 12.327 18.827 12.327C18.1985 12.327 17.6932 11.8248 17.6932 11.1931C17.6932 10.5613 18.1985 10.0696 18.827 10.0696Z" fill="#7F96B2"/>
</svg>
