<svg width="23" height="23" viewBox="0 0 23 23" fill="none" xmlns="http://www.w3.org/2000/svg">
<path d="M11.1429 15.3535C13.6621 15.3535 15.7116 13.2546 15.7116 10.6749C15.7116 8.09524 13.6621 5.99658 11.1429 5.99658C8.62369 5.99658 6.57422 8.09551 6.57422 10.6749C6.57422 13.2546 8.62369 15.3535 11.1429 15.3535ZM11.1429 7.22026C13.0029 7.22026 14.5166 8.77001 14.5166 10.6749C14.5166 12.5798 13.0029 14.1296 11.1429 14.1296C9.2829 14.1296 7.76922 12.5798 7.76922 10.6749C7.76922 8.77001 9.2829 7.22026 11.1429 7.22026Z" fill="#7F96B2"/>
<path d="M11.1421 22.8185C17.2858 22.8185 22.2842 17.7004 22.2842 11.4092C22.2842 5.11811 17.2858 0 11.1421 0C4.99842 0 0 5.11811 0 11.4092C0 17.7004 4.99842 22.8185 11.1421 22.8185ZM11.1421 21.5948C8.87868 21.5948 6.79079 20.8152 5.11737 19.5067C6.84447 18.1577 8.95711 17.4199 11.1421 17.4199C13.3271 17.4199 15.4392 18.1579 17.1663 19.5069C15.4932 20.8152 13.4053 21.5948 11.1421 21.5948ZM11.1421 1.22368C16.6268 1.22368 21.0889 5.79288 21.0889 11.4092C21.0889 14.2053 19.9826 16.7413 18.1953 18.5837C18.1858 18.5937 18.1763 18.6039 18.1666 18.6139C18.1416 18.6395 18.1153 18.6637 18.0897 18.6888C16.1197 17.0776 13.6737 16.1962 11.1424 16.1962C8.61105 16.1962 6.165 17.0776 4.195 18.6888C4.16895 18.6629 4.14184 18.6381 4.11605 18.612C4.11026 18.6058 4.10421 18.5996 4.09842 18.5931C2.30526 16.7499 1.19526 14.2102 1.19526 11.4092C1.19526 5.79288 5.65737 1.22368 11.1421 1.22368Z" fill="#7F96B2"/>
</svg>
