<svg width="22" height="24" viewBox="0 0 22 24" fill="none" xmlns="http://www.w3.org/2000/svg">
<path d="M11.0045 24L15.3541 19.4719H20.6762C21.4056 19.4719 22 18.8531 22 18.0938V4.37813C22 3.61875 21.4056 3 20.6762 3H1.32378C0.594351 3 0 3.61875 0 4.37813V18.0844C0 18.8437 0.594351 19.4625 1.32378 19.4625H6.64593L11.0045 24ZM20.6762 3.92812C20.9194 3.92812 21.1085 4.13438 21.1085 4.37813V18.0844C21.1085 18.3375 20.9104 18.5344 20.6762 18.5344H14.9849L11.0045 22.6875L7.01514 18.5438H1.32378C1.08064 18.5438 0.891525 18.3375 0.891525 18.0938V4.37813C0.891525 4.13438 1.08964 3.92812 1.32378 3.92812H20.6762Z" fill="#7F96B2"/>
<path d="M11.5674 14.1904H10.4258L10.3369 7.04688H11.6631L11.5674 14.1904ZM10.2891 16.3643C10.2891 16.1592 10.3506 15.9883 10.4736 15.8516C10.6012 15.7103 10.7881 15.6396 11.0342 15.6396C11.2803 15.6396 11.4671 15.7103 11.5947 15.8516C11.7223 15.9883 11.7861 16.1592 11.7861 16.3643C11.7861 16.5693 11.7223 16.7402 11.5947 16.877C11.4671 17.0091 11.2803 17.0752 11.0342 17.0752C10.7881 17.0752 10.6012 17.0091 10.4736 16.877C10.3506 16.7402 10.2891 16.5693 10.2891 16.3643Z" fill="#7F96B2"/>
</svg>
