<svg width="19" height="16" viewBox="0 0 19 16" fill="none" xmlns="http://www.w3.org/2000/svg">
<path d="M0.726432 6.1296H1.49916C1.89323 6.1296 2.23034 5.79724 2.23034 5.39842C2.23034 4.99484 1.89323 4.66724 1.49916 4.66724H0.726432C0.332354 4.66724 0 4.99484 0 5.39842C0 5.79843 0.332354 6.1296 0.726432 6.1296Z" fill="#7F96B2"/>
<path d="M5.98425 15.4854H18.2636C18.6671 15.4854 18.9995 15.153 18.9995 14.7494C18.9995 14.3506 18.6671 14.0123 18.2636 14.0123H5.98425C5.58898 14.0123 5.25781 14.3494 5.25781 14.7494C5.25781 15.153 5.59017 15.4854 5.98425 15.4854Z" fill="#7F96B2"/>
<path d="M0.726432 1.45286H1.49916C1.89323 1.45286 2.23034 1.12526 2.23034 0.726432C2.23034 0.322859 1.89323 0 1.49916 0H0.726432C0.332354 0 0 0.321672 0 0.726432C0 1.12526 0.332354 1.45286 0.726432 1.45286Z" fill="#7F96B2"/>
<path d="M5.98425 10.8075H18.2636C18.6671 10.8075 18.9995 10.4811 18.9995 10.081C18.9995 9.67629 18.6671 9.34393 18.2636 9.34393H5.98425C5.58898 9.34393 5.25781 9.67629 5.25781 10.081C5.25781 10.4811 5.59017 10.8075 5.98425 10.8075Z" fill="#7F96B2"/>
<path d="M0.726432 10.8075H1.49916C1.89323 10.8075 2.23034 10.4811 2.23034 10.081C2.23034 9.67629 1.89323 9.34393 1.49916 9.34393H0.726432C0.332354 9.34393 0 9.67629 0 10.081C0 10.4811 0.332354 10.8075 0.726432 10.8075Z" fill="#7F96B2"/>
<path d="M0.726432 15.4854H1.49916C1.89323 15.4854 2.23034 15.153 2.23034 14.7494C2.23034 14.3506 1.89323 14.0123 1.49916 14.0123H0.726432C0.332354 14.0123 0 14.3494 0 14.7494C0 15.153 0.332354 15.4854 0.726432 15.4854Z" fill="#7F96B2"/>
<path d="M5.98425 1.45286H18.2636C18.6671 1.45286 18.9995 1.12526 18.9995 0.726432C18.9995 0.322859 18.6671 0 18.2636 0H5.98425C5.58898 0 5.25781 0.321672 5.25781 0.726432C5.25781 1.12526 5.59017 1.45286 5.98425 1.45286Z" fill="#7F96B2"/>
<path d="M5.98425 6.1296H18.2636C18.6671 6.1296 18.9995 5.79724 18.9995 5.39842C18.9995 4.99484 18.6671 4.66724 18.2636 4.66724H5.98425C5.58898 4.66724 5.25781 4.99484 5.25781 5.39842C5.25781 5.79843 5.59017 6.1296 5.98425 6.1296Z" fill="#7F96B2"/>
</svg>
