<svg width="23" height="23" viewBox="0 0 23 23" fill="none" xmlns="http://www.w3.org/2000/svg">
<path fill-rule="evenodd" clip-rule="evenodd" d="M17.958 5.03925C18.3848 5.46888 18.3844 6.1598 17.958 6.58621C17.5315 7.01263 16.8374 7.01079 16.4133 6.58897C15.3953 5.5756 16.9418 4.0245 17.958 5.03925ZM0.513877 12.2741C-0.173361 12.9618 -0.169221 14.0837 0.513877 14.7728L8.2299 22.486C8.9176 23.1732 10.0395 23.1695 10.7282 22.486L23 10.2142L21.5988 1.40115L12.7857 0L0.513877 12.2741ZM20.4576 2.54239L21.6053 9.76156L9.80447 21.5623C9.62645 21.7412 9.3316 21.7403 9.15358 21.5623L1.43756 13.8491C1.25908 13.6706 1.25954 13.3762 1.43756 13.1977L13.2388 1.39471L20.4576 2.54239ZM18.8807 7.5085C19.8159 6.57333 19.8163 5.05581 18.8802 4.11972C17.9405 3.18317 16.4262 3.18501 15.491 4.11972C13.9794 5.63126 15.0692 8.21092 17.1856 8.21092C18.2629 8.21092 18.7864 7.55542 18.8807 7.5085Z" fill="#7F96B2"/>
</svg>
