<svg width="22" height="28" viewBox="0 0 22 28" fill="none" xmlns="http://www.w3.org/2000/svg">
<path d="M11.0045 28L15.3541 23.4719H20.6762C21.4056 23.4719 22 22.8531 22 22.0938V8.37813C22 7.61875 21.4056 7 20.6762 7H1.32378C0.594351 7 0 7.61875 0 8.37813V22.0844C0 22.8437 0.594351 23.4625 1.32378 23.4625H6.64593L11.0045 28ZM20.6762 7.92812C20.9194 7.92812 21.1085 8.13438 21.1085 8.37813V22.0844C21.1085 22.3375 20.9104 22.5344 20.6762 22.5344H14.9849L11.0045 26.6875L7.01514 22.5438H1.32378C1.08064 22.5438 0.891525 22.3375 0.891525 22.0938V8.37813C0.891525 8.13438 1.08964 7.92812 1.32378 7.92812H20.6762Z" fill="#7F96B2"/>
<path d="M6.44727 16.3369C6.44727 16.1182 6.51107 15.9359 6.63867 15.79C6.77083 15.6442 6.9668 15.5713 7.22656 15.5713C7.48633 15.5713 7.68229 15.6442 7.81445 15.79C7.95117 15.9359 8.01953 16.1182 8.01953 16.3369C8.01953 16.5465 7.95117 16.722 7.81445 16.8633C7.68229 17.0046 7.48633 17.0752 7.22656 17.0752C6.9668 17.0752 6.77083 17.0046 6.63867 16.8633C6.51107 16.722 6.44727 16.5465 6.44727 16.3369ZM10.1387 16.3369C10.1387 16.1182 10.2025 15.9359 10.3301 15.79C10.4622 15.6442 10.6582 15.5713 10.918 15.5713C11.1777 15.5713 11.3737 15.6442 11.5059 15.79C11.6426 15.9359 11.7109 16.1182 11.7109 16.3369C11.7109 16.5465 11.6426 16.722 11.5059 16.8633C11.3737 17.0046 11.1777 17.0752 10.918 17.0752C10.6582 17.0752 10.4622 17.0046 10.3301 16.8633C10.2025 16.722 10.1387 16.5465 10.1387 16.3369ZM13.8301 16.3369C13.8301 16.1182 13.8939 15.9359 14.0215 15.79C14.1536 15.6442 14.3496 15.5713 14.6094 15.5713C14.8691 15.5713 15.0651 15.6442 15.1973 15.79C15.334 15.9359 15.4023 16.1182 15.4023 16.3369C15.4023 16.5465 15.334 16.722 15.1973 16.8633C15.0651 17.0046 14.8691 17.0752 14.6094 17.0752C14.3496 17.0752 14.1536 17.0046 14.0215 16.8633C13.8939 16.722 13.8301 16.5465 13.8301 16.3369Z" fill="#7F96B2"/>
</svg>
